<svg xmlns="http://www.w3.org/2000/svg" viewBox="0 0 100 100" role="img" aria-label="AnglerBook">
  <defs>
    <linearGradient id="g" x1="0" y1="0" x2="0" y2="1">
      <stop offset="0" stop-color="#2F6B4F"/>
      <stop offset="1" stop-color="#1C4636"/>
    </linearGradient>
  </defs>
  <rect width="100" height="100" rx="22" fill="#15362A"/>
  <g transform="translate(22 14) scale(0.56)">
    <path d="M12 13 C12 9.7 14.7 7 18 7 L82 7 C85.3 7 88 9.7 88 13 L88 53 C88 80 69 94 50 109 C31 94 12 80 12 53 Z"
          fill="url(#g)" stroke="#EFE9DA" stroke-width="3.5"/>
    <path d="M17.2 15.4 C17.2 13 19 11.6 21 11.6 L79 11.6 C81 11.6 82.8 13 82.8 15.4 L82.8 52 C82.8 77 65.5 90 50 102.6 C34.5 90 17.2 77 17.2 52 Z"
          fill="none" stroke="#EFE9DA" stroke-width="1.5" opacity="0.85"/>
    <text x="50" y="61" text-anchor="middle" font-family="'Arial Narrow', Arial, sans-serif"
          font-weight="700" font-size="46" letter-spacing="-1" fill="#EFE9DA">AB</text>
    <g stroke="#EFE9DA" fill="none" stroke-width="2.4" stroke-linecap="round">
      <path d="M22 77 Q31 71 40 77 T58 77 T76 77"/>
      <path d="M22 85 Q31 79 40 85 T58 85 T76 85" opacity="0.7"/>
      <path d="M25 92 Q33 86.5 41 92 T57 92 T73 92" opacity="0.55"/>
    </g>
  </g>
</svg>
